<mxfile host="app.diagrams.net" modified="2022-01-24T06:19:23.702Z" agent="5.0 (Macintosh; Intel Mac OS X 10_15_7) AppleWebKit/537.36 (KHTML, like Gecko) Chrome/96.0.4664.110 Safari/537.36" etag="OaaicvqpanRr28uB_5g2" version="16.4.2" type="github">
  <diagram id="JmcHAItDjiUM8see2G8r" name="Page-1">
    <mxGraphModel dx="1426" dy="826" grid="1" gridSize="10" guides="1" tooltips="1" connect="1" arrows="1" fold="1" page="1" pageScale="1" pageWidth="850" pageHeight="1100" math="0" shadow="0">
      <root>
        <mxCell id="0" />
        <mxCell id="1" parent="0" />
        <mxCell id="ekvnJDoxyeroL0z65feW-1" value="&lt;b style=&quot;background-color: rgb(255 , 255 , 102)&quot;&gt;Bifrost Chain&lt;/b&gt;" style="ellipse;whiteSpace=wrap;html=1;" parent="1" vertex="1">
          <mxGeometry x="165" y="140" width="520" height="350" as="geometry" />
        </mxCell>
        <mxCell id="ekvnJDoxyeroL0z65feW-2" value="&lt;span style=&quot;background-color: rgb(255 , 255 , 255)&quot;&gt;Zenlink pools&lt;/span&gt;" style="ellipse;shape=cloud;whiteSpace=wrap;html=1;labelBackgroundColor=#FFFF66;" parent="1" vertex="1">
          <mxGeometry x="600" y="262.5" width="180" height="105" as="geometry" />
        </mxCell>
        <mxCell id="ekvnJDoxyeroL0z65feW-3" value="Aggregator&lt;br&gt;&amp;nbsp;Module Account" style="ellipse;whiteSpace=wrap;html=1;aspect=fixed;labelBackgroundColor=#FFFFFF;" parent="1" vertex="1">
          <mxGeometry x="380" y="440" width="120" height="120" as="geometry" />
        </mxCell>
        <mxCell id="ekvnJDoxyeroL0z65feW-5" value="VtokenMinting&lt;br&gt;&amp;nbsp;Module" style="ellipse;shape=cloud;whiteSpace=wrap;html=1;labelBackgroundColor=#FFFFFF;" parent="1" vertex="1">
          <mxGeometry x="60" y="190" width="270" height="140" as="geometry" />
        </mxCell>
        <mxCell id="ekvnJDoxyeroL0z65feW-6" value="" style="curved=1;endArrow=classic;html=1;rounded=0;exitX=1;exitY=0.5;exitDx=0;exitDy=0;entryX=0.633;entryY=0.967;entryDx=0;entryDy=0;entryPerimeter=0;strokeColor=#FF3399;" parent="1" source="ekvnJDoxyeroL0z65feW-3" target="ekvnJDoxyeroL0z65feW-2" edge="1">
          <mxGeometry width="50" height="50" relative="1" as="geometry">
            <mxPoint x="550" y="580" as="sourcePoint" />
            <mxPoint x="600" y="530" as="targetPoint" />
            <Array as="points">
              <mxPoint x="550" y="530" />
            </Array>
          </mxGeometry>
        </mxCell>
        <mxCell id="ekvnJDoxyeroL0z65feW-7" value="ksm(swap-1)" style="edgeLabel;html=1;align=center;verticalAlign=middle;resizable=0;points=[];" parent="ekvnJDoxyeroL0z65feW-6" vertex="1" connectable="0">
          <mxGeometry x="0.1947" y="5" relative="1" as="geometry">
            <mxPoint as="offset" />
          </mxGeometry>
        </mxCell>
        <mxCell id="ekvnJDoxyeroL0z65feW-8" value="" style="curved=1;endArrow=classic;html=1;rounded=0;exitX=0.694;exitY=0.957;exitDx=0;exitDy=0;exitPerimeter=0;entryX=1;entryY=1;entryDx=0;entryDy=0;strokeColor=#FF3399;" parent="1" source="ekvnJDoxyeroL0z65feW-2" target="ekvnJDoxyeroL0z65feW-3" edge="1">
          <mxGeometry width="50" height="50" relative="1" as="geometry">
            <mxPoint x="710" y="500" as="sourcePoint" />
            <mxPoint x="760" y="450" as="targetPoint" />
            <Array as="points">
              <mxPoint x="680" y="440" />
              <mxPoint x="600" y="490" />
              <mxPoint x="530" y="520" />
            </Array>
          </mxGeometry>
        </mxCell>
        <mxCell id="ekvnJDoxyeroL0z65feW-9" value="vksm(swap-2)" style="edgeLabel;html=1;align=center;verticalAlign=middle;resizable=0;points=[];" parent="ekvnJDoxyeroL0z65feW-8" vertex="1" connectable="0">
          <mxGeometry x="-0.2382" y="-1" relative="1" as="geometry">
            <mxPoint x="-14" y="25" as="offset" />
          </mxGeometry>
        </mxCell>
        <mxCell id="ekvnJDoxyeroL0z65feW-12" value="`" style="curved=1;endArrow=classic;html=1;rounded=0;exitX=0.5;exitY=1;exitDx=0;exitDy=0;exitPerimeter=0;strokeColor=#3333FF;" parent="1" source="ekvnJDoxyeroL0z65feW-4" edge="1">
          <mxGeometry width="50" height="50" relative="1" as="geometry">
            <mxPoint x="90" y="500" as="sourcePoint" />
            <mxPoint x="390" y="530" as="targetPoint" />
            <Array as="points">
              <mxPoint x="180" y="420" />
              <mxPoint x="220" y="460" />
              <mxPoint x="240" y="470" />
            </Array>
          </mxGeometry>
        </mxCell>
        <mxCell id="ekvnJDoxyeroL0z65feW-13" value="ksm(transfer, fast redeem-2)" style="edgeLabel;html=1;align=center;verticalAlign=middle;resizable=0;points=[];" parent="ekvnJDoxyeroL0z65feW-12" vertex="1" connectable="0">
          <mxGeometry x="-0.1422" y="-2" relative="1" as="geometry">
            <mxPoint x="-1" y="7" as="offset" />
          </mxGeometry>
        </mxCell>
        <mxCell id="ekvnJDoxyeroL0z65feW-18" value="" style="curved=1;endArrow=classic;html=1;rounded=0;exitX=0.5;exitY=0;exitDx=0;exitDy=0;strokeColor=#3333FF;entryX=0.8;entryY=0.8;entryDx=0;entryDy=0;entryPerimeter=0;" parent="1" source="ekvnJDoxyeroL0z65feW-3" target="okP__t1PxhoC6ByJe6uj-1" edge="1">
          <mxGeometry width="50" height="50" relative="1" as="geometry">
            <mxPoint x="390" y="440" as="sourcePoint" />
            <mxPoint x="440" y="390" as="targetPoint" />
            <Array as="points">
              <mxPoint x="440" y="440" />
              <mxPoint x="540" y="400" />
            </Array>
          </mxGeometry>
        </mxCell>
        <mxCell id="ekvnJDoxyeroL0z65feW-19" value="vksm(fdestroy, fast redeem-1)" style="edgeLabel;html=1;align=center;verticalAlign=middle;resizable=0;points=[];" parent="ekvnJDoxyeroL0z65feW-18" vertex="1" connectable="0">
          <mxGeometry x="0.0794" y="2" relative="1" as="geometry">
            <mxPoint y="-1" as="offset" />
          </mxGeometry>
        </mxCell>
        <mxCell id="ekvnJDoxyeroL0z65feW-20" value="" style="endArrow=classic;startArrow=classic;html=1;rounded=0;entryX=0.13;entryY=0.77;entryDx=0;entryDy=0;entryPerimeter=0;strokeColor=#CCCC00;" parent="1" source="ekvnJDoxyeroL0z65feW-3" target="ekvnJDoxyeroL0z65feW-2" edge="1">
          <mxGeometry width="50" height="50" relative="1" as="geometry">
            <mxPoint x="490" y="430" as="sourcePoint" />
            <mxPoint x="540" y="380" as="targetPoint" />
          </mxGeometry>
        </mxCell>
        <mxCell id="ekvnJDoxyeroL0z65feW-21" value="ksm+vksm(liquidity)" style="edgeLabel;html=1;align=center;verticalAlign=middle;resizable=0;points=[];" parent="ekvnJDoxyeroL0z65feW-20" vertex="1" connectable="0">
          <mxGeometry x="0.0749" y="1" relative="1" as="geometry">
            <mxPoint as="offset" />
          </mxGeometry>
        </mxCell>
        <mxCell id="ekvnJDoxyeroL0z65feW-22" value="Aggregator module asset flowchart" style="text;html=1;align=center;verticalAlign=middle;resizable=0;points=[];autosize=1;strokeColor=none;fillColor=none;fontStyle=1;fontSize=15;" parent="1" vertex="1">
          <mxGeometry x="295" y="60" width="270" height="20" as="geometry" />
        </mxCell>
        <mxCell id="ekvnJDoxyeroL0z65feW-4" value="Banker-in&lt;br&gt;&amp;nbsp;account" style="shape=cylinder3;whiteSpace=wrap;html=1;boundedLbl=1;backgroundOutline=1;size=15;labelBackgroundColor=#FFFFFF;" parent="1" vertex="1">
          <mxGeometry x="130" y="287.5" width="100" height="80" as="geometry" />
        </mxCell>
        <mxCell id="okP__t1PxhoC6ByJe6uj-1" value="Currencies&lt;br&gt;&amp;nbsp;Module" style="ellipse;shape=cloud;whiteSpace=wrap;html=1;labelBackgroundColor=#FFFFFF;" vertex="1" parent="1">
          <mxGeometry x="340" y="90" width="240" height="100" as="geometry" />
        </mxCell>
      </root>
    </mxGraphModel>
  </diagram>
</mxfile>
